<svg version="1.0" preserveAspectRatio="xMidYMid meet" viewBox="0 0 87.48 84.23999927199999" zoomAndPan="magnify" xmlns:xlink="http://www.w3.org/1999/xlink" xmlns="http://www.w3.org/2000/svg" style="max-height: 500px" width="87.48" height="84.23999927199999"><defs><clipPath id="86a564845a"><path clip-rule="nonzero" d="M 7 3 L 41 3 L 41 61 L 7 61 Z M 7 3"/></clipPath><clipPath id="f2cd8db570"><path clip-rule="nonzero" d="M -46.46875 -5.917969 L 121.519531 -7.675781 L 122.628906 98.066406 L -45.363281 99.828125 Z M -46.46875 -5.917969"/></clipPath><clipPath id="cd1019fd54"><path clip-rule="nonzero" d="M 38 24 L 80 24 L 80 78 L 38 78 Z M 38 24"/></clipPath><clipPath id="dc0220a441"><path clip-rule="nonzero" d="M -46.46875 -5.917969 L 121.519531 -7.675781 L 122.628906 98.066406 L -45.363281 99.828125 Z M -46.46875 -5.917969"/></clipPath></defs><g clip-path="url(#86a564845a)"><g clip-path="url(#f2cd8db570)"><path fill-rule="nonzero" fill-opacity="1" d="M 40.5625 37.089844 C 40.722656 37.164062 40.777344 37.277344 40.726562 37.441406 C 40.6875 37.601562 40.609375 37.777344 40.488281 37.953125 C 40.363281 38.136719 40.257812 38.28125 40.171875 38.390625 C 40.117188 38.441406 40.078125 38.492188 40.0625 38.523438 C 39.214844 39.738281 38.472656 41.015625 37.839844 42.347656 C 37.222656 43.660156 36.640625 45.015625 36.105469 46.410156 C 35.875 46.929688 35.644531 47.453125 35.417969 47.980469 C 34.925781 49.148438 34.449219 50.335938 33.976562 51.523438 C 33.167969 53.542969 32.320312 55.542969 31.421875 57.535156 C 31.085938 58.238281 30.722656 58.921875 30.339844 59.59375 C 30.003906 60.136719 29.5 60.398438 28.839844 60.390625 C 28.28125 60.410156 27.933594 60.160156 27.808594 59.621094 C 27.695312 59.171875 27.621094 58.714844 27.605469 58.25 C 27.511719 56.449219 27.539062 54.664062 27.683594 52.882812 C 27.777344 51.644531 27.851562 50.410156 27.914062 49.191406 C 27.988281 47.875 28.082031 46.554688 28.195312 45.226562 C 28.414062 42.203125 28.671875 39.183594 28.960938 36.160156 C 29.285156 32.707031 29.625 29.269531 29.988281 25.828125 C 30.625 19.988281 31.171875 14.132812 31.636719 8.265625 C 31.664062 7.890625 31.667969 7.585938 31.652344 7.351562 C 31.628906 7.121094 31.574219 7.039062 31.488281 7.109375 C 31.394531 7.164062 31.261719 7.449219 31.09375 7.949219 C 29.398438 12.964844 27.84375 18.007812 26.425781 23.089844 C 26.375 23.292969 26.332031 23.480469 26.296875 23.65625 C 25.449219 26.683594 24.582031 29.699219 23.699219 32.6875 C 23.386719 33.863281 23.007812 35.050781 22.578125 36.253906 C 22.15625 37.445312 21.664062 38.574219 21.101562 39.640625 C 20.925781 39.953125 20.691406 40.15625 20.410156 40.265625 C 20.140625 40.378906 19.824219 40.421875 19.464844 40.382812 C 19.101562 40.355469 18.832031 40.175781 18.652344 39.855469 C 18.5 39.550781 18.410156 39.222656 18.371094 38.859375 C 18.328125 38.449219 18.28125 38.023438 18.222656 37.59375 C 18.105469 36.664062 18.003906 35.738281 17.925781 34.820312 C 17.683594 32.222656 17.371094 29.613281 17.007812 26.988281 C 16.65625 24.371094 16.199219 21.789062 15.632812 19.242188 C 15.476562 18.597656 15.261719 18.617188 14.988281 19.300781 C 14.703125 19.992188 14.394531 21.132812 14.054688 22.734375 C 13.707031 24.339844 13.339844 26.191406 12.953125 28.296875 C 12.578125 30.390625 12.214844 32.523438 11.859375 34.695312 C 11.503906 36.855469 11.183594 38.828125 10.898438 40.609375 C 10.457031 43.394531 10.164062 45.179688 10.011719 45.953125 C 9.867188 46.496094 9.683594 47.015625 9.460938 47.523438 C 9.355469 47.738281 9.203125 47.882812 9.007812 47.960938 C 8.828125 48.027344 8.617188 48.058594 8.390625 48.046875 C 7.917969 47.976562 7.628906 47.703125 7.519531 47.21875 C 7.476562 46.964844 7.457031 46.714844 7.457031 46.464844 C 7.433594 46.25 7.425781 46.042969 7.421875 45.847656 C 7.359375 45.039062 7.324219 44.21875 7.316406 43.394531 C 7.121094 37.089844 7.089844 30.777344 7.226562 24.449219 C 7.304688 20.445312 7.382812 16.4375 7.449219 12.425781 C 7.445312 11.996094 7.441406 11.558594 7.4375 11.105469 C 7.410156 10.714844 7.40625 10.296875 7.421875 9.867188 C 7.433594 9.53125 7.550781 9.300781 7.765625 9.191406 C 7.996094 9.066406 8.261719 9.0625 8.574219 9.179688 C 8.695312 9.222656 8.777344 9.28125 8.820312 9.367188 C 8.875 9.460938 8.902344 9.570312 8.902344 9.691406 C 9.054688 10.785156 9.117188 11.890625 9.074219 13.003906 C 9.058594 13.648438 9.046875 14.3125 9.039062 14.972656 C 9.003906 16.789062 8.957031 18.605469 8.90625 20.417969 C 8.839844 22.753906 8.808594 25.082031 8.820312 27.398438 C 8.796875 29.121094 8.78125 30.847656 8.765625 32.574219 C 8.730469 34.390625 8.730469 36.210938 8.769531 38.042969 C 8.78125 39.285156 8.78125 40.550781 8.78125 41.84375 C 8.78125 41.917969 8.789062 42.03125 8.8125 42.195312 C 8.828125 42.34375 8.855469 42.503906 8.898438 42.679688 C 8.933594 42.839844 8.96875 42.960938 9.011719 43.054688 C 9.046875 43.160156 9.09375 43.1875 9.144531 43.132812 C 9.199219 43.078125 9.238281 42.917969 9.277344 42.648438 C 9.386719 41.835938 9.535156 40.917969 9.703125 39.894531 C 10.035156 37.503906 10.441406 34.867188 10.914062 31.984375 C 11.382812 29.089844 11.921875 26.363281 12.527344 23.800781 C 13.148438 21.226562 13.8125 19.226562 14.539062 17.796875 C 14.839844 17.273438 15.210938 17.023438 15.664062 17.03125 C 16.128906 17.046875 16.503906 17.320312 16.777344 17.855469 C 17.164062 18.714844 17.484375 19.773438 17.753906 21.023438 C 18.015625 22.28125 18.238281 23.59375 18.414062 24.953125 C 18.589844 26.320312 18.746094 27.589844 18.886719 28.773438 C 18.945312 29.421875 19.015625 30.007812 19.09375 30.523438 C 19.191406 31.371094 19.277344 32.140625 19.359375 32.839844 C 19.539062 34.507812 19.703125 35.8125 19.859375 36.742188 C 20.03125 37.65625 20.238281 38.113281 20.492188 38.109375 C 20.742188 38.105469 21.082031 37.53125 21.5 36.375 C 21.917969 35.222656 22.492188 33.386719 23.21875 30.859375 C 23.855469 28.519531 24.472656 26.261719 25.0625 24.101562 C 25.820312 21.238281 26.605469 18.398438 27.425781 15.585938 C 28.257812 12.761719 29.234375 9.8125 30.351562 6.742188 C 30.679688 5.84375 31.023438 5.105469 31.378906 4.523438 C 31.75 3.945312 32.105469 3.644531 32.449219 3.621094 C 32.589844 3.605469 32.726562 3.621094 32.855469 3.671875 C 32.976562 3.722656 33.097656 3.878906 33.207031 4.125 C 33.320312 4.382812 33.382812 4.792969 33.410156 5.363281 C 33.433594 6.355469 33.417969 7.34375 33.359375 8.328125 C 33.316406 9.320312 33.253906 10.3125 33.175781 11.296875 C 33.15625 11.402344 33.152344 11.511719 33.152344 11.621094 C 32.71875 16.675781 32.234375 21.722656 31.695312 26.753906 C 31.332031 30.03125 30.996094 33.308594 30.691406 36.601562 C 30.691406 36.675781 30.679688 36.757812 30.667969 36.84375 C 30.375 39.90625 30.097656 42.953125 29.847656 46.015625 C 29.640625 48.714844 29.460938 51.410156 29.3125 54.105469 C 29.292969 54.335938 29.277344 54.578125 29.265625 54.835938 C 29.21875 55.515625 29.199219 56.210938 29.207031 56.910156 C 29.210938 57.160156 29.210938 57.402344 29.214844 57.636719 C 29.195312 57.707031 29.195312 57.773438 29.214844 57.828125 C 29.25 57.878906 29.3125 57.90625 29.40625 57.90625 C 29.441406 57.90625 29.472656 57.886719 29.511719 57.851562 C 29.546875 57.832031 29.566406 57.804688 29.566406 57.769531 C 30.441406 55.929688 31.285156 54.09375 32.097656 52.273438 C 32.867188 50.5 33.65625 48.738281 34.464844 46.992188 C 35.289062 45.238281 36.160156 43.503906 37.078125 41.789062 C 37.820312 40.328125 38.507812 39.160156 39.144531 38.292969 C 39.78125 37.421875 40.25 37.027344 40.5625 37.089844 Z M 40.5625 37.089844" fill="#000000"/></g></g><g clip-path="url(#cd1019fd54)"><g clip-path="url(#dc0220a441)"><path fill-rule="nonzero" fill-opacity="1" d="M 79.386719 25.304688 C 79.589844 25.773438 79.226562 26.535156 78.308594 27.582031 C 73.472656 33.023438 69.519531 39.066406 66.449219 45.707031 C 65.132812 48.472656 63.90625 51.273438 62.792969 54.101562 C 61.667969 56.914062 60.59375 59.757812 59.566406 62.625 C 58.414062 65.761719 57.265625 68.90625 56.132812 72.066406 C 55.660156 73.324219 55.09375 74.558594 54.449219 75.75 C 54.269531 76.074219 54.0625 76.386719 53.835938 76.699219 C 53.820312 76.785156 53.773438 76.847656 53.703125 76.890625 C 53.503906 77.175781 53.257812 77.367188 52.957031 77.460938 C 52.667969 77.574219 52.363281 77.605469 52.039062 77.554688 L 51.988281 77.554688 C 51.351562 77.433594 50.878906 77.105469 50.546875 76.570312 C 50.199219 75.929688 49.941406 75.242188 49.773438 74.53125 C 49.445312 73.058594 49.257812 71.558594 49.1875 70.035156 C 49.050781 67.558594 49.058594 65.085938 49.214844 62.625 C 49.390625 58.78125 49.660156 54.9375 50.039062 51.109375 C 50.050781 51.019531 50.0625 50.914062 50.0625 50.785156 C 50.0625 50.71875 50.0625 50.625 50.058594 50.515625 C 49.898438 50.679688 49.773438 50.839844 49.6875 51.003906 C 49.613281 51.152344 49.554688 51.300781 49.503906 51.464844 C 49.464844 51.519531 49.453125 51.585938 49.453125 51.652344 C 48.855469 53.1875 48.230469 54.710938 47.585938 56.226562 C 46.957031 57.742188 46.285156 59.246094 45.585938 60.722656 C 45.039062 61.875 44.394531 62.972656 43.652344 64.003906 C 43.28125 64.492188 42.867188 64.960938 42.425781 65.417969 C 42.03125 65.746094 41.578125 65.925781 41.058594 65.972656 C 40.554688 66.03125 40.074219 65.914062 39.625 65.636719 C 39.171875 65.371094 38.851562 64.894531 38.667969 64.21875 C 38.476562 63.390625 38.339844 62.535156 38.265625 61.660156 C 38.140625 60.066406 38.082031 58.449219 38.105469 56.8125 C 38.152344 53.039062 38.355469 49.277344 38.714844 45.511719 C 38.960938 43.105469 39.367188 40.710938 39.933594 38.332031 C 40.019531 38.027344 40.121094 37.710938 40.246094 37.386719 C 40.417969 37.058594 40.707031 36.941406 41.105469 37.027344 C 41.539062 37.09375 41.714844 37.335938 41.652344 37.746094 C 41.5 38.71875 41.320312 39.679688 41.117188 40.609375 C 40.820312 42.121094 40.589844 43.648438 40.410156 45.171875 C 40.242188 46.683594 40.117188 48.222656 40.027344 49.785156 C 39.917969 51.617188 39.847656 53.445312 39.8125 55.257812 C 39.753906 56.484375 39.730469 57.699219 39.746094 58.898438 C 39.757812 60.082031 39.832031 61.269531 39.96875 62.453125 C 40.042969 63.078125 40.171875 63.667969 40.339844 64.226562 C 40.449219 64.582031 40.566406 64.777344 40.695312 64.816406 C 40.816406 64.847656 41.019531 64.730469 41.285156 64.460938 C 41.511719 64.222656 41.726562 63.96875 41.925781 63.699219 C 42.308594 63.1875 42.65625 62.671875 42.957031 62.152344 C 43.257812 61.621094 43.539062 61.082031 43.804688 60.527344 C 44.558594 59.050781 45.253906 57.546875 45.886719 56.03125 C 46.515625 54.5 47.132812 52.957031 47.75 51.402344 C 47.855469 51.132812 47.949219 50.882812 48.039062 50.644531 C 48.492188 49.546875 48.96875 48.453125 49.460938 47.367188 C 49.566406 47.136719 49.671875 46.902344 49.777344 46.664062 C 49.914062 46.324219 50.09375 46 50.304688 45.6875 C 50.53125 45.347656 50.851562 45.210938 51.273438 45.273438 C 51.628906 45.289062 51.878906 45.375 52.027344 45.535156 C 52.191406 45.695312 52.277344 45.957031 52.28125 46.316406 C 52.265625 46.90625 52.21875 47.515625 52.136719 48.121094 C 51.75 51.132812 51.453125 54.140625 51.234375 57.160156 C 51.238281 57.449219 51.21875 57.738281 51.191406 58.023438 C 51.078125 59.574219 50.980469 61.109375 50.886719 62.660156 C 50.808594 64.207031 50.785156 65.742188 50.800781 67.269531 C 50.8125 68.382812 50.851562 69.480469 50.917969 70.558594 C 50.980469 71.636719 51.109375 72.71875 51.300781 73.816406 C 51.300781 73.828125 51.308594 73.847656 51.328125 73.867188 C 51.386719 74.246094 51.472656 74.628906 51.582031 75.023438 C 51.695312 75.414062 51.847656 75.785156 52.054688 76.125 C 52.195312 76.101562 52.300781 76.046875 52.375 75.960938 C 52.441406 75.886719 52.507812 75.808594 52.5625 75.742188 C 52.574219 75.703125 52.59375 75.667969 52.613281 75.632812 C 53.300781 74.398438 53.886719 73.140625 54.378906 71.84375 C 55.125 69.785156 55.859375 67.738281 56.578125 65.703125 C 57.34375 63.605469 58.113281 61.515625 58.886719 59.425781 C 59.964844 56.46875 61.113281 53.539062 62.324219 50.628906 C 63.53125 47.707031 64.855469 44.847656 66.304688 42.042969 C 69.453125 35.941406 73.382812 30.394531 78.09375 25.398438 C 78.75 24.855469 79.179688 24.824219 79.386719 25.304688 Z M 79.386719 25.304688" fill="#000000"/></g></g></svg>